HIERARCHY
ROOT Hips
{
	OFFSET	0	0	0
	CHANNELS 6  Xposition Yposition Zposition Xrotation Yrotation Zrotation
	JOINT Spine
	{
		OFFSET	0	7.00908	1.40711
		CHANNELS 3  Xrotation Yrotation Zrotation
		JOINT Spine1
		{
			OFFSET	0	11.9997	-2.14281
			CHANNELS 3  Xrotation Yrotation Zrotation
			JOINT Spine2
			{
				OFFSET	0	9.09621	0.974976
				CHANNELS 3  Xrotation Yrotation Zrotation
				JOINT Spine3
				{
					OFFSET	0	10.8855	3.23564
					CHANNELS 3  Xrotation Yrotation Zrotation
					JOINT Spine4
					{
						OFFSET	0	16.1139	-1.64996
						CHANNELS 3  Xrotation Yrotation Zrotation
						JOINT Neck
						{
							OFFSET	0	7.69267	-5.38915
							CHANNELS 3  Xrotation Yrotation Zrotation
							JOINT Head
							{
								OFFSET	0	9.23549	-2.76422
								CHANNELS 3  Xrotation Yrotation Zrotation
								End Site
								{
									OFFSET	0	19.2638	-0.93212
								}
							}
						}
					}
					JOINT LeftShoulder
					{
						OFFSET	-4.62846	19.5852	-9.23549
						CHANNELS 3  Xrotation Yrotation Zrotation
						JOINT LeftArm
						{
							OFFSET	-10.1082	-2.76422	3.54636
							CHANNELS 3  Xrotation Yrotation Zrotation
							JOINT LeftForeArm
							{
								OFFSET	-30.9178	-1.41114	2.20688
								CHANNELS 3  Xrotation Yrotation Zrotation
								JOINT LeftHand
								{
									OFFSET	-25.989	-1.79599	1.85507
									CHANNELS 3  Xrotation Yrotation Zrotation
									End Site
									{
										OFFSET	-9.4847	-0.655447	0.676963
									}
								}
							}
						}
					}
					JOINT RightShoulder
					{
						OFFSET	4.62846	19.5852	-9.23549
						CHANNELS 3  Xrotation Yrotation Zrotation
						JOINT RightArm
						{
							OFFSET	10.1082	-2.76422	3.54636
							CHANNELS 3  Xrotation Yrotation Zrotation
							JOINT RightForeArm
							{
								OFFSET	30.9178	-1.41114	2.20688
								CHANNELS 3  Xrotation Yrotation Zrotation
								JOINT RightHand
								{
									OFFSET	25.989	-1.79599	1.85507
									CHANNELS 3  Xrotation Yrotation Zrotation
									End Site
									{
										OFFSET	9.4847	-0.655447	0.676963
									}
								}
							}
						}
					}
				}
			}
		}
	}
	JOINT LeftUpLeg
	{
		OFFSET	-9.51492	-3.50454	-0.703555
		CHANNELS 3  Xrotation Yrotation Zrotation
		JOINT LeftLeg
		{
			OFFSET	-2.15663	-42.2584	-0.660591
			CHANNELS 3  Xrotation Yrotation Zrotation
			JOINT LeftFoot
			{
				OFFSET	-2.11138	-38.9194	3.34707
				CHANNELS 3  Xrotation Yrotation Zrotation
				JOINT LeftToeBase
				{
					OFFSET	0	-4.8091	-12.773
					CHANNELS 3  Xrotation Yrotation Zrotation
					End Site
					{
						OFFSET	0	-1.92364	-7.69456
					}
				}
			}
		}
	}
	JOINT RightUpLeg
	{
		OFFSET	9.51492	-3.50454	-0.703555
		CHANNELS 3  Xrotation Yrotation Zrotation
		JOINT RightLeg
		{
			OFFSET	2.15663	-42.2584	-0.660591
			CHANNELS 3  Xrotation Yrotation Zrotation
			JOINT RightFoot
			{
				OFFSET	2.11138	-38.9194	3.34707
				CHANNELS 3  Xrotation Yrotation Zrotation
				JOINT RightToeBase
				{
					OFFSET	0	-4.8091	-12.773
					CHANNELS 3  Xrotation Yrotation Zrotation
					End Site
					{
						OFFSET	0	-1.92364	-7.69456
					}
				}
			}
		}
	}
}
MOTION
Frames: 14
Frame Time: 0.020408
 0 -9.53305 2.91081 -0 0 -0 -0 0 -0 -0 0 -0 -0 0 -0 -0 0 -0 -0 0 -0 -0 0 -0 -0 0 -0 -0 0 -0 -0 0 -0 -0 0 -0 -0 0 -0 -0 0 -0 -0 0 -0 -0 0 -0 -0 0 -0 -0 0 -0 -0 0 -0 -0 0 -0 -0 0 -0 -0 0 -0 -0 0 -0 -0 0 -0 -0 0 -0
 95.0296 90.8236 189.216 23.6451 -33.7093 15.6073 0.000692142 0.0376638 -1.0528 173.866 179.925 178.245 173.741 179.774 178.245 175.52 179.962 178.947 178.864 179.993 179.649 2.52041 -3.82763 -3.78909 0.780027 -2.10324 -1.29214 177.296 -160.784 174.177 127.137 -150.295 -142.271 122.547 -56.4044 125.495 -0 27.6178 7.46563 179.299 151.442 -178.477 161.866 174.148 115.555 149.861 52.4616 -153.731 -0 -3.72754 4.69174 158.761 -179.743 -166.334 2.16993 8.52657 -5.51729 4.55701 -3.83582 -6.30265 173.18 180 -180 177.707 -147.944 -167.96 160.575 178.604 -178.58 179.65 179.636 173.647 5.7559 0 0
 95.1449 90.8487 189.284 23.634 -33.4817 15.7126 0.000538271 0.0290018 -1.06328 173.868 179.942 178.228 173.749 179.826 178.228 175.544 179.971 178.937 178.811 179.993 179.646 2.36312 -3.89642 -3.89299 0.734051 -2.12916 -1.32389 177.298 -160.656 174.18 126.937 -150.395 -142.476 122.698 -56.5 125.64 -0 27.6098 7.58343 179.261 151.445 -178.395 162.222 174.342 115.515 149.632 52.7291 -153.503 -0 -3.97731 4.89791 158.507 -179.596 -166.602 2.47994 8.55739 -5.55367 4.52377 -3.80419 -6.06528 173.157 180 -180 177.312 -147.645 -168.402 160.854 178.541 -178.37 179.619 179.68 173.622 5.75589 0 0
 95.0155 90.831 189.38 23.5164 -33.4365 15.4096 0.000444271 0.0244589 -1.04061 173.885 179.951 178.266 173.765 179.853 178.266 175.555 179.976 178.959 178.819 179.993 179.653 2.37306 -3.77771 -3.7985 0.735893 -2.03584 -1.28891 177.352 -160.51 174.294 126.896 -150.431 -142.591 122.821 -56.6798 125.741 -0 27.5714 7.6755 179.223 151.391 -178.311 162.752 174.603 115.386 149.455 52.8852 -153.351 -0 -4.34006 5.04088 158.558 -179.728 -166.435 2.57027 8.49325 -5.39232 4.41569 -3.81069 -6.14358 173.146 180 -180 177.749 -147.704 -167.789 160.632 178.449 -178.892 179.675 179.758 173.794 5.75527 0 0
 95.0384 90.8305 189.378 23.566 -33.4425 15.4442 0.000636641 0.0349627 -1.04319 173.879 179.93 178.261 173.764 179.79 178.261 175.561 179.965 178.957 178.793 179.993 179.652 2.30635 -3.5908 -3.71227 0.714936 -1.83295 -1.24795 177.323 -160.311 174.228 126.741 -150.441 -142.69 122.997 -56.7631 125.903 -0 27.5722 7.8296 179.216 151.32 -178.298 163.177 174.824 115.356 149.262 53.0655 -153.153 -0 -4.68364 5.12743 158.391 -179.933 -166.412 2.69453 8.48422 -5.54274 4.49291 -3.60625 -5.39804 173.101 180 -180 177.718 -147.486 -167.919 160.653 178.357 -178.56 179.685 179.797 173.512 5.76733 0 0
 95.165 90.8362 189.44 23.535 -33.3617 15.4536 0.000652654 0.0359513 -1.04002 173.894 179.928 178.267 173.776 179.784 178.267 175.562 179.964 178.96 178.82 179.993 179.653 2.36661 -3.56359 -3.75395 0.733738 -1.73054 -1.25374 177.207 -160.14 173.975 126.402 -150.464 -142.761 123.43 -56.6613 126.38 -0 27.5823 8.02848 179.22 151.348 -178.307 163.265 174.717 115.258 149.122 53.1169 -152.977 -0 -4.96196 5.03812 158.323 179.878 -166.659 2.64032 8.60456 -5.38441 4.76814 -3.26735 -4.15884 173.04 180 -180 177.66 -147.335 -167.995 160.556 178.365 -178.628 179.817 179.859 173.229 5.787 0 0
 95.1378 90.8391 189.354 23.4836 -33.1807 15.4449 0.000447129 0.0238291 -1.07497 173.898 179.952 178.208 173.776 179.857 178.208 175.558 179.976 178.925 178.837 179.993 179.642 2.40883 -3.54365 -3.79654 0.74711 -1.64223 -1.26068 177.207 -160.044 173.974 126.282 -150.42 -142.624 123.816 -56.6043 126.759 -0 27.531 8.15544 179.135 151.366 -178.121 163.266 174.622 115.293 149.131 52.9904 -152.896 -0 -5.19347 4.95311 158.314 -179.926 -166.63 2.59597 8.4123 -5.51015 4.73042 -3.5177 -5.05906 173.059 180 -180 177.391 -147.265 -168.152 160.877 178.295 -178.546 179.782 179.831 173.422 5.76909 0 0
 95.009 90.8291 189.377 23.4263 -33.3375 15.0546 0.000629405 0.0360138 -1.00124 173.907 179.928 178.331 173.781 179.784 178.331 175.546 179.964 178.999 178.883 179.993 179.666 2.52907 -3.5409 -3.84864 0.784094 -1.55813 -1.2716 177.242 -159.897 174.049 126.104 -150.435 -142.585 124.115 -56.6029 127.096 -0 27.4197 8.27113 179.185 151.394 -178.229 163.325 174.566 115.314 149.173 52.8835 -152.858 -0 -5.35013 4.86474 158.309 -179.905 -166.2 2.86352 8.1584 -5.4208 4.35598 -3.77328 -6.02334 173.086 180 -180 177.911 -147.463 -167.573 160.692 178.251 -178.576 179.821 179.721 173.634 5.74841 0 0
 95.0753 90.8297 189.348 23.3851 -33.137 15.3852 0.000642612 0.0328654 -1.12015 173.907 179.934 178.133 173.774 179.803 178.133 175.525 179.967 178.88 178.929 179.993 179.627 2.66427 -3.46086 -3.74874 0.82348 -1.51474 -1.23972 177.384 -159.706 174.353 125.995 -150.359 -142.446 124.175 -56.7215 127.121 -0 27.3025 8.38072 179.127 151.455 -178.103 163.326 174.553 115.486 149.174 52.7961 -152.855 -0 -5.4314 4.77711 158.334 -179.908 -166.581 2.67033 8.27022 -5.5159 4.66903 -3.60708 -5.4195 173.04 180 -180 177.522 -147.233 -168.025 160.797 178.253 -178.638 179.766 179.782 173.467 5.76383 0 0
 95.1682 90.8395 189.397 23.4413 -33.1584 15.2429 0.000611411 0.0340131 -1.02983 173.896 179.932 178.284 173.768 179.796 178.284 175.534 179.966 178.97 178.888 179.993 179.657 2.53977 -3.61996 -4.14509 0.791709 -1.35321 -1.34663 177.308 -159.652 174.187 126.018 -150.637 -142.379 124.332 -56.8239 127.303 -0 27.1841 8.40119 179.181 151.402 -178.222 163.388 174.45 115.522 149.076 52.7968 -152.813 -0 -5.5673 4.64868 158.198 -179.97 -166.477 2.77831 8.17304 -5.58669 4.61374 -3.55484 -5.19175 173.022 180 -180 177.513 -147.062 -167.956 160.849 178.229 -178.48 179.858 179.719 173.434 5.76101 0 0
 95.1413 90.8413 189.332 23.4135 -33.1646 15.1805 0.000461205 0.0258442 -1.02237 173.913 179.948 178.296 173.789 179.845 178.296 175.561 179.974 178.978 178.857 179.993 179.659 2.42707 -3.72068 -4.30492 0.76015 -1.36161 -1.3941 177.331 -159.642 174.239 126.112 -150.773 -142.187 124.426 -56.9423 127.505 -0 27.0593 8.40307 179.045 151.31 -177.926 163.224 174.237 115.78 148.952 52.8036 -152.671 -0 -5.69693 4.49838 158.117 -179.899 -166.498 2.9456 8.01393 -5.36035 4.43791 -3.82554 -6.08576 173.046 180 -180 177.425 -147.263 -167.855 160.983 178.256 -178.741 179.85 179.719 173.766 5.74553 0 0
 95.2976 90.8358 189.385 23.4369 -33.3441 15.2378 0.000802572 0.0459872 -0.999828 173.927 179.908 178.334 173.8 179.724 178.334 175.555 179.954 179 178.897 179.994 179.667 2.53035 -3.81628 -4.28044 0.790729 -1.52837 -1.39973 177.321 -159.559 174.214 126.061 -150.956 -142.173 124.465 -57.0942 127.504 -0 26.9442 8.38414 179.067 151.311 -177.974 162.995 173.901 115.807 148.828 52.7933 -152.53 -0 -5.83077 4.3314 158.097 179.617 -166.687 2.89972 8.41576 -5.22849 4.83176 -3.10082 -3.53909 172.933 180 -180 177.677 -147.054 -167.754 160.608 178.289 -178.757 0.0173014 0.215906 -6.9595 5.79466 0 0
 95.1481 90.8139 189.298 23.4484 -33.4683 15.2107 0.000701002 0.0400753 -1.00212 173.917 179.92 178.33 173.791 179.76 178.33 175.552 179.96 178.998 178.885 179.993 179.666 2.50177 -3.88517 -4.35768 0.783267 -1.56122 -1.42501 177.347 -159.543 174.272 126.2 -150.977 -141.921 124.826 -57.054 127.83 -0 26.7819 8.36551 179.024 151.36 -177.88 163.019 173.815 116.009 148.84 52.7032 -152.476 -0 -5.86205 4.28804 158.266 -179.837 -166.253 2.91943 8.10983 -5.62166 4.43882 -3.76541 -5.93649 173.015 180 -180 177.662 -147.457 -167.788 160.721 178.167 -178.636 179.996 179.701 173.703 5.74446 0 0
 95.1638 90.8247 189.259 23.4953 -33.5024 15.2748 0.000645412 0.0367546 -1.00601 173.905 179.927 178.323 173.77 179.78 178.323 175.518 179.963 178.994 178.943 179.994 179.665 2.68065 -3.86437 -4.26841 0.83575 -1.59292 -1.40238 177.32 -159.564 174.214 126.453 -151.089 -141.679 124.913 -57.171 127.915 -0 26.609 8.30344 179 151.38 -177.828 162.838 173.67 116.189 148.876 52.562 -152.575 -0 -5.89279 4.22918 158.186 -179.748 -166.195 3.08427 8.00246 -5.70326 4.29509 -3.7531 -6.0807 173.011 180 -180 177.442 -147.428 -167.961 161.026 178.074 -178.484 179.888 179.704 173.681 5.73601 0 0
